# xmcd
#
# Track frame offsets:
#	150
#	10847
#	28380
#	43860
#	60025
#	72902
#	92362
#	110030
#	123910
#	145565
#	165582
#	181990
#	200920
#	211490
#
# Disc length: 3092 seconds
# Revision: 0
# Processed by: cddbd v1.5.2PL0 Copyright (c) Steve Scherf et al.
# Submitted via: dBpowerAMP V12.0
#
DISCID=c10c120e
DTITLE=Garth Brooks - Ropin' The Wind
DYEAR=1992
DGENRE=Country
TTITLE0=Against The Grain
TTITLE1=Rodeo
TTITLE2=What She's Doing Now
TTITLE3=Burning Bridges
TTITLE4=Papa Loved Mama
TTITLE5=Shameless
TTITLE6=Cold Shoulder
TTITLE7=We Bury The Hatchet
TTITLE8=In Lonesome Dove
TTITLE9=The River
TTITLE10=Alabama Clay
TTITLE11=Everytime That It Rains
TTITLE12=Nobody Gets Off In This Town
TTITLE13=Cowboy Bill
EXTD=
EXTT0=
EXTT1=
EXTT2=
EXTT3=
EXTT4=
EXTT5=
EXTT6=
EXTT7=
EXTT8=
EXTT9=
EXTT10=
EXTT11=
EXTT12=
EXTT13=
PLAYORDER=
